# xmcd
# 
# Track frame offsets:
#     150
#     20537
#     39150
#     55682
#     75440
#     97042
#     114275
#     133185
#     152687
# 
# Disc length: 2379
# 
# Revision: 2
# Processed by: cddbd v1.5.2PL0 Copyright (c) Steve Scherf et al.
# Submitted via: fre:ac v1.0.17
# 
DISCID=62094909
DTITLE=松田聖子 - Tinker Bell
DYEAR=1984
DGENRE=J-POP
TTITLE0=真っ赤なロードスター
TTITLE1=ガラス靴の魔女
TTITLE2=いそしぎの島
TTITLE3=密林少女～ジャングル・ガール
TTITLE4=時間の国のアリス
TTITLE5=AQUARIUS
TTITLE6=不思議な少年
TTITLE7=Rock'n Rouge
TTITLE8=Sleeping Beauty
EXTD=
EXTT0=
EXTT1=
EXTT2=
EXTT3=
EXTT4=
EXTT5=
EXTT6=
EXTT7=
EXTT8=
PLAYORDER=
